<?xml version="1.0" standalone="no"?>
<!DOCTYPE svg PUBLIC "-//W3C//DTD SVG 20010904//EN"
 "http://www.w3.org/TR/2001/REC-SVG-20010904/DTD/svg10.dtd">
<svg version="1.0" xmlns="http://www.w3.org/2000/svg"
 width="500.000000pt" height="500.000000pt" viewBox="0 0 500.000000 500.000000"
 preserveAspectRatio="xMidYMid meet">

<g transform="translate(0.000000,500.000000) scale(0.100000,-0.100000)"
fill="#000000" stroke="none">
<path d="M2313 4069 c-333 -43 -660 -205 -904 -448 -142 -142 -258 -305 -318
-444 l-20 -47 23 0 c19 0 29 13 55 64 109 221 319 454 535 594 344 223 765
299 1167 212 432 -94 816 -386 1027 -782 38 -70 52 -88 70 -88 12 0 22 2 22 5
0 13 -62 126 -113 207 -252 399 -677 671 -1137 728 -96 11 -315 11 -407 -1z"/>
<path d="M2385 3930 c-242 -22 -486 -115 -705 -268 -153 -108 -366 -361 -437
-520 -28 -64 -28 -62 -3 -62 15 0 26 13 41 48 36 84 151 245 244 341 269 279
609 424 995 424 283 0 528 -72 762 -225 189 -123 390 -349 477 -536 19 -41 29
-52 48 -52 l23 0 -34 68 c-264 524 -824 835 -1411 782z"/>
<path d="M2539 3787 c-46 -35 -50 -88 -10 -128 33 -33 74 -38 109 -13 37 26
27 37 -27 29 -44 -6 -51 -4 -61 15 -25 46 31 95 67 59 6 -6 21 -9 34 -7 l24 3
-27 28 c-29 29 -80 36 -109 14z"/>
<path d="M2282 3782 c-10 -7 -10 -20 -1 -61 12 -57 5 -76 -27 -69 -10 2 -21
16 -25 33 -4 17 -10 42 -13 58 -7 28 -13 32 -33 19 -14 -9 6 -111 27 -137 18
-22 76 -19 100 5 23 23 24 39 9 110 -11 51 -15 56 -37 42z"/>
<path d="M2762 3753 c-17 -6 -42 -57 -42 -83 0 -33 53 -80 90 -80 71 0 109 99
57 148 -22 21 -73 28 -105 15z m69 -33 c22 -12 26 -59 7 -78 -18 -18 -56 -14
-68 7 -14 28 -13 38 10 61 23 23 25 23 51 10z"/>
<path d="M2034 3717 c-54 -23 -69 -43 -29 -40 20 1 26 -7 45 -58 25 -66 30
-72 50 -59 11 7 10 18 -8 65 -27 69 -27 72 -3 80 12 4 18 12 14 21 -6 17 -6
17 -69 -9z"/>
<path d="M2954 3629 c-28 -57 -33 -74 -22 -80 20 -13 25 -11 38 21 20 47 30
45 24 -4 -8 -59 14 -72 55 -32 36 34 45 33 26 -4 -19 -37 -19 -46 0 -54 11 -4
25 14 53 70 31 63 35 76 22 84 -22 14 -24 13 -70 -25 -23 -19 -44 -35 -47 -35
-3 0 -3 27 0 59 4 47 2 61 -10 65 -28 11 -33 6 -69 -65z"/>
<path d="M1757 3564 l-38 -25 23 -32 c12 -18 34 -49 49 -69 l27 -38 42 31 c30
22 39 34 32 41 -8 8 -18 6 -36 -5 -21 -14 -26 -14 -36 -2 -10 12 -8 18 10 33
31 25 18 48 -14 27 -20 -13 -25 -13 -35 -1 -9 11 -6 17 14 30 14 9 23 21 20
26 -9 15 -17 13 -58 -16z"/>
<path d="M3186 3498 c-42 -56 -45 -64 -31 -78 14 -13 17 -13 25 0 5 8 27 39
49 69 30 40 38 57 29 63 -21 13 -24 11 -72 -54z"/>
<path d="M3280 3428 l-54 -60 37 -34 c45 -42 87 -45 122 -9 36 35 34 85 -6
130 -17 19 -34 35 -38 34 -3 0 -31 -28 -61 -61z m90 -56 c-11 -19 -25 -28 -48
-30 -48 -5 -52 21 -11 64 l33 34 21 -20 c18 -19 19 -22 5 -48z"/>
<path d="M1584 3418 l-35 -33 61 -60 61 -60 35 37 c42 46 45 88 9 123 -36 37
-86 34 -131 -7z m94 -14 c22 -15 27 -38 16 -68 -9 -24 -24 -20 -61 16 -31 30
-32 33 -16 50 20 22 32 23 61 2z"/>
<path d="M1481 3296 c-10 -12 0 -24 55 -65 64 -49 84 -55 84 -27 0 11 -110
106 -123 106 -2 0 -10 -6 -16 -14z"/>
<path d="M2423 3303 c4 -3 0 -15 -10 -25 -20 -22 -48 -24 -39 -3 11 30 -68 8
-92 -26 -9 -14 -21 -19 -34 -16 -31 9 -66 -12 -60 -35 4 -16 1 -18 -21 -13
-20 5 -34 -1 -66 -30 -32 -29 -39 -41 -30 -51 16 -19 1 -38 -18 -22 -12 10
-18 8 -34 -12 -56 -73 -129 -219 -129 -259 0 -31 157 -53 440 -61 l245 -7
-255 2 c-192 2 -276 7 -339 19 -47 10 -87 13 -90 8 -3 -4 -14 -11 -23 -15 -30
-11 -23 -56 10 -68 37 -14 176 -23 145 -10 -13 6 -23 17 -23 26 0 13 21 15
153 14 83 0 168 -3 187 -7 l35 -6 -35 -7 c-19 -4 -55 -15 -80 -24 -33 -12 -60
-15 -102 -10 -32 4 -80 4 -107 0 l-50 -7 -3 -46 -4 -47 -12 30 c-8 20 -28 37
-58 52 l-46 23 24 -25 c12 -14 30 -25 38 -25 8 0 23 -14 33 -31 9 -17 26 -33
36 -36 19 -5 19 -5 0 -24 -10 -10 -19 -24 -19 -31 0 -6 10 -1 21 11 18 20 29
22 67 18 28 -3 39 -1 31 4 -8 5 -22 9 -32 9 -10 0 -15 5 -12 10 11 18 63 12
68 -7 3 -14 6 -11 11 10 5 15 13 27 19 27 6 0 22 -12 35 -27 18 -22 21 -23 13
-6 -17 33 -12 40 9 15 25 -31 33 -13 10 23 -32 49 0 82 64 64 23 -6 42 -21 56
-45 12 -19 33 -42 45 -50 28 -18 45 -11 89 35 37 38 85 42 116 9 11 -12 20
-25 20 -29 0 -5 20 -20 43 -34 24 -14 49 -36 55 -50 14 -31 15 -48 3 -41 -5 4
-40 -1 -77 -10 -104 -24 -232 -22 -347 6 l-98 23 -36 -35 -35 -36 81 -31 c131
-51 203 -64 306 -57 78 5 192 24 245 41 11 4 20 -3 28 -20 8 -18 19 -25 40
-25 31 0 72 25 72 44 0 8 10 11 29 8 33 -5 135 47 145 74 12 31 5 39 -10 12
-8 -16 -19 -28 -25 -28 -6 0 -24 -10 -41 -21 -22 -16 -39 -20 -69 -16 -33 4
-39 2 -39 -14 0 -25 -40 -50 -68 -43 -15 5 -25 18 -32 45 -5 22 -15 57 -20 78
-11 40 -77 111 -104 111 -8 0 -29 18 -46 40 -17 22 -39 40 -48 41 -10 1 3 5
28 10 25 4 64 13 87 20 38 10 42 14 45 48 3 36 4 36 58 44 158 21 201 29 268
49 47 14 77 28 84 41 9 18 8 19 -13 14 -60 -15 -79 -15 -31 0 60 18 64 31 33
100 -38 82 -149 213 -158 186 -9 -24 -23 -13 -23 17 0 26 -5 31 -30 37 -17 3
-35 14 -40 23 -5 10 -39 29 -75 44 -54 22 -69 24 -85 14 -16 -10 -23 -9 -44
11 -21 20 -32 22 -83 18 -32 -3 -71 -8 -87 -12 -21 -6 -27 -5 -22 4 5 7 -5 11
-30 11 -21 0 -34 -3 -31 -7z m177 -23 c12 -8 12 -10 -3 -16 -22 -8 -50 3 -42
16 8 12 25 13 45 0z m-104 -77 c-7 -17 -8 -17 -17 0 -12 21 -2 44 13 29 6 -6
8 -19 4 -29z m174 -9 c0 -14 -4 -22 -10 -19 -5 3 -10 17 -10 31 0 14 4 22 10
19 6 -3 10 -17 10 -31z m120 17 c13 -26 13 -31 -5 -31 -8 0 -15 4 -15 9 0 5
-3 16 -6 25 -9 23 13 20 26 -3z m-464 -6 c18 -14 17 -14 -13 -15 -23 0 -33 5
-33 15 0 19 21 19 46 0z m114 -93 c-15 -5 -41 18 -34 30 3 5 15 1 26 -9 11
-10 15 -19 8 -21z m175 28 c4 -6 -5 -10 -19 -10 -14 0 -26 5 -26 10 0 6 9 10
19 10 11 0 23 -4 26 -10z m263 -24 c3 -12 -1 -17 -10 -14 -7 3 -15 13 -16 22
-3 12 1 17 10 14 7 -3 15 -13 16 -22z m-698 5 c0 -5 -8 -17 -17 -27 -20 -20
-32 -1 -13 21 14 17 30 20 30 6z m115 -12 c4 -11 4 -23 0 -27 -7 -7 -25 17
-25 36 0 20 18 14 25 -9z m705 -19 c0 -5 -9 -14 -20 -20 -15 -8 -20 -8 -20 3
0 8 3 17 7 20 10 10 33 8 33 -3z m-260 -34 c0 -16 -24 -38 -33 -30 -8 9 11 44
23 44 6 0 10 -6 10 -14z m-200 -57 c0 -17 -29 -9 -40 11 -17 32 0 47 22 21 10
-13 18 -27 18 -32z m-300 27 c0 -7 -7 -19 -15 -26 -12 -10 -15 -9 -15 7 0 11
3 23 7 26 11 12 23 8 23 -7z m124 -18 c9 -36 7 -41 -9 -28 -16 13 -21 50 -6
50 5 0 11 -10 15 -22z m675 -172 c-6 -7 -166 -46 -181 -45 -7 0 25 11 72 24
83 23 117 29 109 21z m-219 -56 c-14 -4 -36 -8 -50 -8 -22 0 -22 1 5 8 17 4
39 8 50 8 16 0 15 -2 -5 -8z m-87 -17 c-7 -2 -21 -2 -30 0 -10 3 -4 5 12 5 17
0 24 -2 18 -5z m-70 -10 c-13 -2 -33 -2 -45 0 -13 2 -3 4 22 4 25 0 35 -2 23
-4z m-190 -158 c-15 -19 -35 -35 -43 -35 -19 0 -60 28 -60 40 0 4 28 13 63 18
34 5 63 10 65 11 2 0 -10 -15 -25 -34z"/>
<path d="M3442 3265 c-41 -13 -76 -26 -79 -29 -10 -9 17 -35 31 -30 19 7 40
-24 41 -60 0 -47 19 -38 71 33 40 56 45 66 35 87 -13 28 -7 28 -99 -1z m35
-55 c-12 -18 -16 -19 -27 -5 -10 12 -8 16 11 24 31 11 34 7 16 -19z"/>
<path d="M1397 3168 c-13 -18 -27 -38 -31 -45 -8 -14 129 -97 144 -88 17 11
11 31 -15 45 -19 10 -22 17 -15 31 40 73 -34 123 -83 57z m60 -23 c1 -5 -1
-16 -6 -24 -8 -12 -12 -12 -25 -2 -8 7 -12 19 -9 27 6 16 34 15 40 -1z"/>
<path d="M3113 2801 c-40 -18 -74 -63 -61 -77 11 -10 96 8 128 27 23 14 30 26
28 42 -4 30 -41 33 -95 8z"/>
<path d="M2771 2671 c-1 -17 -5 -22 -17 -17 -15 6 -15 4 -3 -10 8 -10 14 -28
14 -41 1 -21 -1 -23 -11 -9 -11 15 -12 15 -18 0 -9 -23 -8 -24 13 -24 26 0 51
10 51 21 0 4 -7 6 -15 3 -22 -9 -18 13 5 33 11 10 20 21 20 26 0 5 -6 4 -14
-2 -12 -10 -15 -7 -19 16 -3 24 -4 24 -6 4z"/>
<path d="M2860 2671 c-5 -11 -10 -30 -10 -43 0 -13 -5 -29 -12 -36 -6 -6 -9
-14 -6 -18 9 -8 30 35 38 79 8 41 6 46 -10 18z"/>
<path d="M1857 2664 c-3 -4 -18 -8 -32 -10 -29 -3 -55 -21 -55 -37 0 -6 6 -3
13 8 10 13 21 16 38 12 18 -5 28 -1 37 13 12 20 12 26 -1 14z"/>
<path d="M3020 2620 c-11 -7 -5 -10 25 -10 22 0 51 -7 65 -15 29 -16 40 -18
40 -7 0 12 -67 42 -93 42 -12 0 -29 -5 -37 -10z"/>
<path d="M2698 2589 c3 -21 7 -27 13 -18 4 7 3 21 -2 31 -14 25 -16 23 -11
-13z"/>
<path d="M1002 2594 c-27 -19 -29 -44 -2 -44 11 0 20 5 20 10 0 6 7 10 15 10
26 0 16 -35 -20 -70 -51 -49 -46 -60 25 -60 47 0 60 3 60 15 0 10 -10 15 -31
15 l-31 0 26 31 c57 67 7 142 -62 93z"/>
<path d="M1139 2591 c-50 -40 -22 -151 38 -151 38 0 63 34 63 85 0 74 -50 107
-101 66z m56 -66 c0 -45 -28 -63 -40 -25 -10 33 3 72 23 68 13 -2 17 -13 17
-43z"/>
<path d="M3770 2590 c-12 -12 -18 -25 -15 -30 8 -13 35 -13 35 0 0 6 9 10 20
10 30 0 25 -15 -21 -65 -22 -24 -38 -49 -34 -55 3 -5 31 -10 61 -10 41 0 54 4
54 15 0 9 -9 15 -25 15 -14 0 -25 3 -25 6 0 3 11 19 25 36 30 36 31 52 5 78
-26 26 -55 25 -80 0z"/>
<path d="M3906 2594 c-9 -8 -16 -20 -16 -25 0 -12 37 -12 45 1 9 15 25 12 25
-5 0 -9 -7 -18 -15 -21 -22 -9 -18 -31 5 -37 11 -3 20 -10 20 -16 0 -16 -33
-27 -38 -13 -5 17 -42 15 -42 -3 0 -30 73 -48 98 -23 16 16 16 68 0 68 -9 0
-9 3 0 12 7 7 12 21 12 33 0 12 -5 26 -12 33 -17 17 -64 15 -82 -4z"/>
<path d="M1770 2583 c0 -13 5 -23 10 -23 6 0 10 -4 10 -9 0 -5 -9 -7 -20 -4
-11 3 -20 1 -21 -3 -5 -92 -5 -93 8 -82 9 7 11 22 7 44 -5 30 -4 32 15 27 25
-6 26 4 6 43 -14 27 -15 27 -15 7z"/>
<path d="M2280 2563 c25 -52 25 -64 3 -56 -10 3 0 -10 22 -30 22 -20 42 -36
45 -37 3 0 6 14 6 32 1 27 0 29 -11 15 -11 -15 -13 -14 -23 9 -7 14 -12 39
-13 57 0 18 -3 26 -6 19 -3 -8 -11 -5 -24 10 -19 22 -19 21 1 -19z"/>
<path d="M3017 2584 c-4 -4 -33 -6 -65 -6 l-59 1 4 -47 c7 -69 11 -74 12 -14
1 38 5 52 15 52 22 0 46 -29 46 -54 0 -24 38 -81 48 -72 3 3 -2 14 -10 23 -13
16 -31 63 -23 63 1 0 19 -7 39 -15 26 -11 42 -13 54 -6 14 9 12 10 -12 11 -28
0 -29 1 -10 15 17 13 16 13 -13 3 -28 -11 -35 -10 -50 4 -15 16 -14 17 10 24
15 3 27 10 27 15 0 11 -4 11 -13 3z"/>
<path d="M1900 2541 c0 -5 13 -20 30 -34 23 -20 26 -26 14 -31 -30 -11 -53 -6
-86 21 -22 19 -28 21 -18 8 34 -47 65 -56 115 -33 30 14 33 28 5 28 -12 0 -25
10 -32 25 -11 24 -28 34 -28 16z"/>
<path d="M2553 2523 c-3 -10 -12 -33 -19 -52 -17 -40 -17 -48 -4 -35 10 10 41
104 34 104 -3 0 -7 -8 -11 -17z"/>
<path d="M2796 2510 c9 -16 17 -30 19 -30 2 0 -1 14 -6 30 -6 17 -15 30 -19
30 -5 0 -2 -13 6 -30z"/>
<path d="M2137 2460 c-14 -11 -37 -20 -51 -20 -14 0 -26 -4 -26 -10 0 -18 56
-10 75 10 10 11 32 24 49 29 30 9 30 9 5 10 -15 1 -38 -8 -52 -19z"/>
<path d="M3170 2470 c-8 -5 -10 -10 -5 -10 6 0 17 5 25 10 8 5 11 10 5 10 -5
0 -17 -5 -25 -10z"/>
<path d="M1825 2390 c-27 -7 -27 -8 -5 -8 14 0 36 4 50 8 20 6 21 8 5 8 -11 0
-33 -4 -50 -8z"/>
<path d="M1948 2393 c12 -2 30 -2 40 0 9 3 -1 5 -23 4 -22 0 -30 -2 -17 -4z"/>
<path d="M3045 2351 c-27 -15 -86 -47 -130 -70 -50 -27 -105 -68 -147 -109
l-67 -65 -40 12 c-22 6 -78 29 -123 50 -46 21 -103 41 -128 45 -65 10 -297 75
-351 97 -34 15 -63 19 -120 17 l-74 -3 3 -55 c2 -30 9 -67 17 -82 12 -26 12
-28 -5 -28 -14 0 -21 -10 -26 -37 -8 -40 10 -170 29 -210 11 -25 122 -87 200
-113 21 -6 36 -14 33 -17 -2 -3 -44 11 -92 31 -49 19 -90 33 -92 31 -8 -7 87
-63 143 -84 136 -51 282 -81 390 -81 299 0 549 72 662 191 40 42 48 76 48 209
0 101 -1 105 -22 108 -18 3 -23 10 -24 35 -2 55 -9 132 -14 145 -6 16 -12 15
-70 -17z m80 -221 c-21 -24 -131 -80 -154 -80 -9 1 5 9 32 20 26 10 64 32 85
49 42 34 64 41 37 11z m-1100 -69 c-8 -7 -72 9 -91 23 -15 12 -7 11 38 -2 31
-9 55 -18 53 -21z m131 -22 c52 -11 123 -24 157 -28 48 -7 54 -9 23 -10 -35
-1 -285 45 -295 55 -8 8 21 4 115 -17z m778 1 c-52 -21 -310 -50 -427 -48
l-122 2 140 6 c126 6 374 36 384 46 2 2 14 4 25 3 21 0 21 0 0 -9z m121 -176
c-34 -26 -127 -70 -195 -92 -119 -39 -213 -52 -347 -50 l-128 1 150 7 c184 9
326 42 448 105 92 48 101 51 72 29z m-778 -120 c-3 -3 -12 -4 -19 -1 -8 3 -5
6 6 6 11 1 17 -2 13 -5z m66 -11 c-7 -2 -21 -2 -30 0 -10 3 -4 5 12 5 17 0 24
-2 18 -5z"/>
<path d="M2712 2205 c-27 -24 -52 -42 -56 -40 -3 3 -2 0 3 -6 12 -15 29 -4 75
49 49 54 41 54 -22 -3z"/>
<path d="M1220 1938 c0 -21 95 -183 157 -270 70 -98 243 -265 341 -331 546
-366 1265 -319 1747 113 143 128 244 259 324 418 40 80 41 83 19 80 -17 -2
-35 -25 -71 -93 -197 -363 -542 -616 -962 -703 -128 -26 -401 -23 -535 7 -182
40 -334 103 -475 197 -208 139 -385 339 -487 549 -14 29 -29 45 -40 45 -10 0
-18 -6 -18 -12z"/>
<path d="M1120 1771 c121 -235 308 -443 535 -593 164 -109 361 -188 568 -230
161 -33 433 -33 594 0 194 39 373 109 532 207 252 156 461 385 595 652 32 63
32 63 3 63 -18 0 -29 -12 -51 -57 -41 -85 -129 -217 -204 -307 -220 -264 -564
-459 -918 -521 -133 -24 -374 -24 -509 0 -476 82 -896 390 -1109 813 -31 61
-40 72 -62 72 l-25 0 51 -99z"/>
</g>
</svg>
